<?xml version="1.0" standalone="no"?><!DOCTYPE svg PUBLIC "-//W3C//DTD SVG 1.1//EN" "http://www.w3.org/Graphics/SVG/1.1/DTD/svg11.dtd"><svg t="1522325901658" class="icon" style="" viewBox="0 0 1024 1024" version="1.1" xmlns="http://www.w3.org/2000/svg" p-id="687" xmlns:xlink="http://www.w3.org/1999/xlink" width="200" height="200"><defs><style type="text/css"></style></defs><path d="M853.112554 467.668807c-49.086887-70.043083-120.253417-140.960857-146.038114-147.028083s-47.606484 1.969826-77.353078 36.40133c-30.92667 35.797641-51.656356 141.974084-62.186026 136.505492-14.559318-7.560774-30.000407-55.884201-30.000407-84.399149 0-13.651257 1.135582-227.320731 1.42782-266.755674s37.205237-89.819204 31.771025-92.915511c-8.181653-4.661651-33.140196-36.681433-42.929664-30.66679s-21.477978 27.301503-21.477978 27.301503-15.842537-29.945802-20.392956-29.945802S462.820083 26.394453 462.820083 53.695955s18.723457 54.077179 21.234277 83.419292c2.466327 28.829432 4.370425 235.244528 0.750314 286.396293-3.467419 49.001945-13.252843 80.221865-30.109617 51.498609-14.423817-24.577319-42.466532-139.811118-108.601311-161.954468-40.116494-13.431826-86.895812 35.622702-128.922471 94.036937C129.953899 528.321847 63.996082 730.312924 48.813861 795.375826c-18.150105 77.777784-22.751084 151.673555 12.134451 194.141099s89.486518 21.234277 165.323801-15.167052 159.256575-16.683858 213.85857-48.534769 20.722608-155.672868 39.434942-191.108497c41.872956-79.292568 12.621851-128.781914 12.134451-161.039328-0.30235-19.958138 4.796142-42.294628 20.300936-39.168996 15.511873 3.126643 32.635605 21.79044 26.29131 39.168996-28.604945 78.348103-7.157303 124.637999 6.492942 164.072941s-3.033613 139.539104 30.335115 185.041272 125.887847 40.951749 186.557067 53.085188 112.238613 48.133321 168.357413 48.133321 56.555641-49.274971 56.555641-137.362993C986.589489 765.974052 939.570515 591.035722 853.112554 467.668807zM329.98324 363.513761c34.717675 0 106.513174 177.972954 109.546787 210.331489 2.269142 24.200139 21.477978 57.744817 11.365935 87.406471-3.311694 9.71565-7.012701 23.435669-10.514501 38.393402-2.125551 0.194151-4.214699 0.649193-6.216884 1.35198l-0.015168-0.042471c-18.100556 6.253287-53.50686 8.187721-72.087738-0.849412-18.5829-9.038143-31.742712-24.753268-37.99701-42.853824l-0.002022 0.002022c-10.594387-30.485785-32.789308-56.944955-64.106303-72.177735-23.408367-11.38616-52.676662-14.019335-78.544277-10.283947C235.184867 460.930142 298.372996 363.513761 329.98324 363.513761zM414.249921 879.227914c-22.920966 21.573031-79.548403 9.773289-134.826893 26.62703-54.72435 16.68487-130.782076 62.359953-165.163019 51.573438s-27.817217-59.587231-24.945397-99.780577c4.144926-58.019865 31.876191-144.401985 67.822478-228.785966 5.342192 1.983983 11.003924 2.080047 16.178256 0.566274l0.018202 0.051571c18.101567-6.255309 45.484977-7.06225 64.064843 1.975893 18.584922 9.038143 31.743723 24.752257 37.99701 42.851801l0.004045-0.002022c10.593375 30.485785 32.791331 56.944955 64.106303 72.176724 24.723943 12.026252 60.992805 13.590585 89.980996 8.597258-1.772641 11.471101-2.918335 21.470899-3.100352 28.422928C425.709899 809.120114 437.169876 857.654883 414.249921 879.227914zM578.738467 619.010687c11.499414-33.694336 80.896338-250.777636 111.232464-250.777636 37.751287 0 139.18316 148.59646 166.509943 204.965029 0.299316 0.617846 0.622902 1.310521 0.95761 2.037577-26.554223-4.362335-57.137083-1.968815-81.416097 9.840028-31.318006 15.231769-53.512927 41.690939-64.106303 72.177735l-0.002022-0.002022c-6.255309 18.099544-19.41411 33.814669-37.99701 42.853824-18.580878 9.037132-53.987182 7.101687-72.087738 0.849412l-0.015168 0.042471c-5.538366-1.943535-11.733003-2.004207-17.546416 0.169882C576.206412 675.843398 569.65482 645.625582 578.738467 619.010687zM920.525494 970.234272c-17.527203 11.459977-70.785307-24.941352-132.805495-40.446146s-138.197236-5.391741-166.510954-36.402341c-23.283988-25.50257-16.93666-92.487772-22.570078-139.852577 30.020631 6.747766 70.823732 6.087449 97.836031-7.052138 31.314972-15.231769 53.512927-41.690939 64.106303-72.176724l0.004045 0.002022c6.254298-18.099544 19.412087-33.812647 37.99701-42.851801 18.579866-9.038143 45.963277-8.231202 64.064843-1.975893l0.018202-0.051571c4.993326 1.46119 10.440684 1.416697 15.617038-0.371112 25.045506 70.466777 59.770259 184.037146 59.770259 239.383387C938.052697 909.585276 938.052697 958.774294 920.525494 970.234272z" p-id="688"></path></svg>