<?xml version="1.0" standalone="no"?><!DOCTYPE svg PUBLIC "-//W3C//DTD SVG 1.1//EN" "http://www.w3.org/Graphics/SVG/1.1/DTD/svg11.dtd"><svg t="1522325891972" class="icon" style="" viewBox="0 0 1041 1024" version="1.1" xmlns="http://www.w3.org/2000/svg" p-id="561" xmlns:xlink="http://www.w3.org/1999/xlink" width="203.3203125" height="200"><defs><style type="text/css"></style></defs><path d="M1024.832512 334.144512c0-148.40832-120.30976-268.716032-268.716032-268.716032-107.794432 0-200.745984 63.479808-243.559424 155.087872C469.745664 128.907264 376.793088 65.42848 268.99968 65.42848c-148.40832 0-268.716032 120.307712-268.716032 268.716032 0 74.728448 30.513152 142.322688 79.748096 191.029248L79.817728 525.305856l398.959616 398.96064c18.655232 18.655232 48.904192 18.655232 67.559424 0L945.296384 525.305856l-0.190464-0.1536C994.3296 476.44672 1024.832512 408.860672 1024.832512 334.144512zM268.99968 113.199104c98.883584 0 182.572032 64.968704 210.762752 154.543104l0.0512 0c3.791872 14.590976 17.051648 25.36448 32.832512 25.36448 16.243712 0 29.81376-11.42272 33.134592-26.672128C574.372864 177.538048 657.716224 113.199104 756.11648 113.199104c122.023936 0 220.944384 98.920448 220.944384 220.944384 0 43.501568-12.575744 84.061184-34.287616 118.250496L774.909952 452.393984l-58.17344-196.420608c-0.662528-9.741312-6.892544-18.665472-16.644096-22.278144l-0.958464-0.356352c-10.717184-3.97312-22.398976-0.309248-29.077504 8.245248-2.787328 3.301376-4.711424 7.271424-5.562368 11.528192l-123.789312 332.57472-69.632-204.428288c-3.712-10.883072-14.027776-17.64352-24.94976-17.333248-8.747008-0.18944-17.366016 4.108288-22.320128 12.077056l-85.213184 137.094144-30.119936-51.397632c-4.538368-7.744512-12.519424-12.21632-20.862976-12.623872-0.070656-0.004096-0.142336-0.00512-0.212992-0.008192-0.300032-0.012288-0.601088-0.021504-0.903168-0.022528-0.088064 0-0.175104-0.006144-0.263168-0.006144L80.275456 449.038336c-20.430848-33.476608-32.22016-72.802304-32.22016-114.893824C48.055296 212.119552 146.97472 113.199104 268.99968 113.199104zM546.336768 856.704c-29.817856 29.817856-38.0416 29.5168-67.559424 0L221.321216 598.641664l-97.153024-97.381376 146.958336 0 44.06272 75.189248c2.80064 4.780032 6.916096 8.308736 11.615232 10.411008 11.705344 5.904384 26.187776 1.995776 33.241088-9.353216l79.26784-127.527936 75.51488 221.697024c3.708928 10.87488 14.012416 17.635328 24.923136 17.33632 10.560512 0.177152 20.555776-6.23616 24.43776-16.699392l123.286528-331.23328 42.126336 142.237696c0.923648 5.460992 3.574784 10.331136 7.374848 14.032896 5.576704 5.578752 13.585408 8.419328 21.697536 7.26528l139.3152 0-93.841408 93.956096L546.336768 856.704z" p-id="562"></path></svg>