<?xml version="1.0" standalone="no"?><!DOCTYPE svg PUBLIC "-//W3C//DTD SVG 1.1//EN" "http://www.w3.org/Graphics/SVG/1.1/DTD/svg11.dtd"><svg class="icon" width="200px" height="196.92px" viewBox="0 0 1040 1024" version="1.1" xmlns="http://www.w3.org/2000/svg"><path fill="#2c2c2c" d="M1024 383.92832c0-79.174656-64.18432-143.36-143.36-143.36-79.174656 0-143.36 64.185344-143.36 143.36 0 76.802048 60.394496 139.495424 136.282112 143.184896-0.556032 7.822336-1.293312 17.467392-2.233344 28.387328l-186.561536 39.375872c-49.263616-37.056512-111.975424-56.546304-178.173952-50.223104-70.375424 6.721536-131.361792 41.330688-173.074432 91.851776-33.2032 40.214528-81.747968 67.765248-137.764864 73.114624-55.436288 5.295104-107.798528-12.155904-147.857408-44.701696-5.264384-4.844544-12.484608-7.520256-20.16768-6.787072-14.354432 1.371136-24.882176 14.119936-23.51104 28.47744 0.678912 7.104512 4.1472 13.267968 9.214976 17.518592l-0.043008 0.0512C63.91296 745.892864 130.347008 768.330752 200.71936 761.61024c70.371328-6.720512 131.359744-41.330688 173.070336-91.854848 33.2032-40.214528 81.747968-67.7632 137.766912-73.112576 55.706624-5.320704 108.30848 12.319744 148.441088 45.170688 4.723712 4.622336 11.1616 7.35232 17.997824 7.323648 0.016384 0 0.031744 0.001024 0.048128 0.001024 0.008192 0 0.016384 0 0.022528 0 0.871424 0.004096 1.750016-0.034816 2.635776-0.118784 1.666048-0.15872 3.277824-0.478208 4.82816-0.927744l180.289536-38.052864c-6.28736 53.66784-16.279552 114.87232-31.337472 149.257216-22.868992 52.225024-58.708992 52.56704-99.668992 19.116032-35.668992-29.129728-104.592384-124.891136-204.383232-133.121024-90.78272-7.487488-184.3712 114.840576-231.457792 180.82304l0.004096 0.003072c-3.028992 4.263936-4.816896 9.472-4.816896 15.100928 0 14.420992 11.691008 26.112 26.112 26.112 10.099712 0 18.853888-5.738496 23.197696-14.128128l0.017408 0.011264c15.442944-24.927232 103.581696-155.9808 180.722688-156.663808 67.566592-0.598016 137.903104 82.829312 178.176 123.846656 51.275776 52.224 132.811776 43.414528 169.643008-26.966016 35.308544-67.472384 46.436352-223.121408 49.156096-271.966208C980.615168 503.970816 1024 449.020928 1024 383.92832zM880.64 475.06432c-50.332672 0-91.136-40.803328-91.136-91.136s40.803328-91.136 91.136-91.136 91.136 40.803328 91.136 91.136S930.972672 475.06432 880.64 475.06432z" /></svg>